<svg id="evGwxydLEDr1" xmlns="http://www.w3.org/2000/svg" xmlns:xlink="http://www.w3.org/1999/xlink" viewBox="0 0 640 480" shape-rendering="geometricPrecision" text-rendering="geometricPrecision"><line x1="0" y1="-166.712517" x2="0" y2="166.712518" transform="translate(113.672627 244.841816)" fill="none" stroke="#3f5787" stroke-width="3"/><line x1="-184.869326" y1="0" x2="184.869326" y2="0" transform="translate(298.541953 411.554334)" fill="none" stroke="#3f5787" stroke-width="3"/><line x1="0" y1="166.712518" x2="0" y2="-166.712517" transform="translate(483.411279 244.841817)" fill="none" stroke="#3f5787" stroke-width="3"/><line x1="184.869326" y1="0" x2="-184.869326" y2="0" transform="translate(298.541953 78.1293)" fill="none" stroke="#3f5787" stroke-width="3"/><line x1="0" y1="-9.903714" x2="0" y2="9.903714" transform="translate(298.541953 111.84044)" fill="none" stroke="#3f5787" stroke-width="3"/><line x1="0" y1="-9.903714" x2="0" y2="9.903714" transform="translate(298.541953 237.84044)" fill="none" stroke="#3f5787" stroke-width="3"/><line x1="0" y1="-9.903714" x2="0" y2="9.903714" transform="translate(298.541953 277.84044)" fill="none" stroke="#3f5787" stroke-width="3"/><line x1="0" y1="-9.903714" x2="0" y2="9.903714" transform="translate(298.541953 319.84044)" fill="none" stroke="#3f5787" stroke-width="3"/><line x1="0" y1="-9.903714" x2="0" y2="9.903714" transform="translate(298.541953 363.84044)" fill="none" stroke="#3f5787" stroke-width="3"/><line x1="0" y1="-9.903714" x2="0" y2="9.903714" transform="translate(298.541953 150.84044)" fill="none" stroke="#3f5787" stroke-width="3"/><line x1="0" y1="-9.903714" x2="0" y2="9.903714" transform="translate(298.541953 192.84044)" fill="none" stroke="#3f5787" stroke-width="3"/><g transform="translate(.999991 0.000001)"><g><g transform="matrix(0-1 1 0 60.701516 536.382409)"><line x1="0" y1="-9.903714" x2="0" y2="9.903714" transform="translate(298.541953 111.84044)" fill="none" stroke="#3f5787" stroke-width="3"/><line x1="0" y1="-9.903714" x2="0" y2="9.903714" transform="translate(298.541953 236.84044)" fill="none" stroke="#3f5787" stroke-width="3"/><line x1="0" y1="-9.903714" x2="0" y2="9.903714" transform="translate(298.541953 277.84044)" fill="none" stroke="#3f5787" stroke-width="3"/><line x1="0" y1="-9.903714" x2="0" y2="9.903714" transform="translate(298.541953 319.84044)" fill="none" stroke="#3f5787" stroke-width="3"/><line x1="0" y1="-9.903714" x2="0" y2="9.903714" transform="translate(298.541953 363.84044)" fill="none" stroke="#3f5787" stroke-width="3"/><line x1="0" y1="-9.903714" x2="0" y2="9.903714" transform="translate(298.541953 150.84044)" fill="none" stroke="#3f5787" stroke-width="3"/><line x1="0" y1="-9.903714" x2="0" y2="9.903714" transform="translate(298.541953 192.84044)" fill="none" stroke="#3f5787" stroke-width="3"/></g></g></g></svg>